<?xml version="1.0" encoding="utf-8"?>
<!-- Generator: Adobe Illustrator 26.0.1, SVG Export Plug-In . SVG Version: 6.00 Build 0)  -->
<svg version="1.1" id="Calque_1" xmlns="http://www.w3.org/2000/svg" xmlns:xlink="http://www.w3.org/1999/xlink" x="0px" y="0px"
	 viewBox="0 0 1000 490.21" style="enable-background:new 0 0 1000 490.21;" xml:space="preserve">
<style type="text/css">
	.st0{display:none;}
	.st1{display:inline;fill:#5AAAF2;}
	.st2{fill:#E5E524;}
	.st3{fill:#FFFF56;}
	.st4{fill:#FFFFAA;}
	.st5{fill:#FFFF00;}
	.st6{fill:#FBB03B;}
	.st7{fill:#FFFFFF;}
	.st8{fill:#5AAAF2;}
</style>
<g class="st0">
	<path class="st1" d="M97.8,191.03V15.02h34.26v147.15h57.03l-3.52,28.87H97.8z"/>
	<path class="st1" d="M246.59,194.08c-11.73,0-21.24-3.02-28.51-9.04c-7.28-6.02-12.6-14.16-15.96-24.41
		c-3.37-10.25-5.05-21.71-5.05-34.38c0-13.45,1.95-25.38,5.87-35.79c3.91-10.4,9.54-18.54,16.9-24.41c7.35-5.87,16.19-8.8,26.52-8.8
		c10.64,0,19.32,2.43,26.05,7.27c6.73,4.85,11.65,11.38,14.79,19.6c3.13,8.21,4.69,17.56,4.69,28.04c0,7.2-0.23,14.79-0.7,22.76
		H230.4c0.15,5.48,0.7,10.88,1.64,16.19c0.94,5.32,2.58,9.66,4.93,13.02c2.35,3.37,5.71,5.05,10.09,5.05
		c5.32,0,8.96-2.11,10.91-6.34c1.95-4.23,3.24-8.92,3.87-14.08l29.1,6.1c-2.19,12.2-7.24,21.79-15.14,28.75
		C267.91,190.6,258.17,194.08,246.59,194.08z M230.4,114.05h31.21v-3.29c0-4.38-0.39-8.8-1.17-13.26
		c-0.78-4.46-2.23-8.21-4.34-11.26c-2.11-3.05-5.13-4.58-9.04-4.58c-4.07,0-7.27,1.61-9.62,4.81c-2.35,3.21-4.03,7.32-5.05,12.32
		C231.38,103.81,230.71,108.89,230.4,114.05z"/>
	<path class="st1" d="M97.8,392.19V216.17h43.18c18.31,0,32.62,3.84,42.95,11.5c10.33,7.67,15.49,19.17,15.49,34.5
		c0,20.03-7.43,33.48-22.29,40.36c8.92,3.29,15.53,8.33,19.83,15.14c4.3,6.81,6.45,15.76,6.45,26.87c0,15.18-5.25,26.91-15.73,35.2
		c-10.48,8.29-25.89,12.44-46.23,12.44H97.8z M132.3,290.34h11.26c7.04,0,12.63-2.23,16.78-6.69c4.14-4.46,6.22-10.44,6.22-17.95
		c0-14.86-8.53-22.29-25.58-22.29h-8.68V290.34z M132.3,364.96h9.15c18.62,0,27.93-8.29,27.93-24.88c0-8.13-2.23-14.08-6.69-17.84
		c-4.46-3.76-11.54-5.63-21.24-5.63h-9.15V364.96z"/>
	<path class="st1" d="M249.17,395c-9.39,0-16.9-3.32-22.53-9.97c-5.63-6.65-8.45-15.84-8.45-27.58c0-10.33,2.54-18.73,7.63-25.23
		c5.08-6.49,12.01-11.27,20.77-14.32c8.76-3.05,18.69-4.58,29.81-4.58v-11.97c0-4.85-0.9-9.04-2.7-12.56
		c-1.8-3.52-5.13-5.28-9.97-5.28c-4.07,0-7.12,1.76-9.15,5.28c-2.03,3.52-3.37,7.71-3.99,12.56l-29.1-6.34
		c2.03-12.52,7-21.86,14.9-28.05c7.9-6.18,17.33-9.27,28.28-9.27c15.33,0,26.6,4.15,33.79,12.44c7.19,8.29,10.79,19.87,10.79,34.73
		v52.57c0,6.26,0.35,12.28,1.06,18.07c0.71,5.79,1.92,11.35,3.64,16.66h-31.92c-2.19-5.63-3.37-11.34-3.52-17.13
		c-2.35,5.63-5.91,10.37-10.68,14.2C263.05,393.09,256.83,395,249.17,395z M250.81,352.76c0,4.85,1.06,8.76,3.17,11.73
		c2.11,2.97,5.28,4.46,9.5,4.46c3.91,0,7.04-1.33,9.39-3.99c2.35-2.66,3.52-6.1,3.52-10.33v-23.7c-8.14,0-14.43,2.08-18.89,6.22
		C253.04,341.3,250.81,346.5,250.81,352.76z"/>
	<path class="st1" d="M332.25,392.19V263.82l31.45-3.76v32.62c1.88-10.17,5.67-18.54,11.38-25.11c5.71-6.57,12.16-9.86,19.36-9.86
		c6.1,0,10.64,1.49,13.61,4.46l-7.04,31.92c-3.29-2.35-7.27-3.52-11.97-3.52c-6.73,0-12.4,3.44-17.01,10.33
		c-4.62,6.89-6.92,16.12-6.92,27.69v63.6H332.25z"/>
	<path class="st1" d="M428,288.69l-6.1-14.78c3.6-1.41,6.37-3.79,8.33-7.16c1.95-3.36,2.93-8.41,2.93-15.14h-15.72v-35.44h31.92
		v34.97c0,9.86-1.99,17.95-5.99,24.29C439.38,281.77,434.26,286.19,428,288.69z"/>
	<path class="st1" d="M487.61,395c-9.39,0-16.9-3.32-22.53-9.97c-5.63-6.65-8.45-15.84-8.45-27.58c0-10.33,2.54-18.73,7.63-25.23
		c5.08-6.49,12.01-11.27,20.77-14.32c8.76-3.05,18.69-4.58,29.81-4.58v-11.97c0-4.85-0.9-9.04-2.7-12.56
		c-1.8-3.52-5.13-5.28-9.97-5.28c-4.07,0-7.12,1.76-9.15,5.28c-2.03,3.52-3.37,7.71-3.99,12.56l-29.1-6.34
		c2.03-12.52,7-21.86,14.9-28.05c7.9-6.18,17.33-9.27,28.28-9.27c15.33,0,26.6,4.15,33.79,12.44c7.19,8.29,10.79,19.87,10.79,34.73
		v52.57c0,6.26,0.35,12.28,1.06,18.07c0.71,5.79,1.92,11.35,3.64,16.66h-31.92c-2.19-5.63-3.37-11.34-3.52-17.13
		c-2.35,5.63-5.91,10.37-10.68,14.2C501.49,393.09,495.27,395,487.61,395z M489.25,352.76c0,4.85,1.06,8.76,3.17,11.73
		c2.11,2.97,5.28,4.46,9.5,4.46c3.91,0,7.04-1.33,9.39-3.99c2.35-2.66,3.52-6.1,3.52-10.33v-23.7c-8.14,0-14.43,2.08-18.89,6.22
		C491.48,341.3,489.25,346.5,489.25,352.76z"/>
	<path class="st1" d="M570.68,433.26V262.88l31.21-3.99v16.9c2.5-5.47,6.1-9.86,10.79-13.14c4.7-3.29,10.48-4.93,17.37-4.93
		c13.45,0,23.35,6.22,29.69,18.66c6.34,12.44,9.5,29.22,9.5,50.34c0,12.83-1.41,24.41-4.22,34.73
		c-2.82,10.33-7.24,18.54-13.26,24.64c-6.02,6.1-13.81,9.15-23.35,9.15c-6.1,0-11.19-1.33-15.26-3.99
		c-4.07-2.66-7.27-6.1-9.62-10.33v48.11L570.68,433.26z M618.56,369.89c6.26,0,10.68-3.91,13.26-11.73
		c2.58-7.82,3.87-18.23,3.87-31.21c0-13.14-1.29-23.74-3.87-31.8c-2.58-8.06-7-12.09-13.26-12.09c-5.63,0-9.54,3.05-11.73,9.15
		c-2.19,6.1-3.29,14.24-3.29,24.41v19.95c0,9.86,1.09,17.88,3.29,24.05C609.02,366.81,612.93,369.89,618.56,369.89z"/>
	<path class="st1" d="M689.2,433.26V262.88l31.21-3.99v16.9c2.5-5.47,6.1-9.86,10.79-13.14c4.7-3.29,10.48-4.93,17.37-4.93
		c13.45,0,23.35,6.22,29.69,18.66c6.34,12.44,9.5,29.22,9.5,50.34c0,12.83-1.41,24.41-4.22,34.73
		c-2.82,10.33-7.24,18.54-13.26,24.64c-6.02,6.1-13.81,9.15-23.35,9.15c-6.1,0-11.19-1.33-15.26-3.99
		c-4.07-2.66-7.27-6.1-9.62-10.33v48.11L689.2,433.26z M737.07,369.89c6.26,0,10.68-3.91,13.26-11.73
		c2.58-7.82,3.87-18.23,3.87-31.21c0-13.14-1.29-23.74-3.87-31.8c-2.58-8.06-7-12.09-13.26-12.09c-5.63,0-9.54,3.05-11.73,9.15
		c-2.19,6.1-3.29,14.24-3.29,24.41v19.95c0,9.86,1.09,17.88,3.29,24.05C727.53,366.81,731.44,369.89,737.07,369.89z"/>
</g>
<g>
	<path class="st2" d="M778.41,174.86c-38.71,5.08-68.84,31.98-84.67,66.51c-2.31,5.05-5.6,10.16-6.9,15.59
		c-4.58,19.23-2.31,37.91,3.82,56.43c3.1,9.36,6.42,18.78,12.45,26.73c13.86,18.27,31.02,29.69,52.28,37.29
		c13.92,4.98,29.06,6.64,43.81,4.82c9.98-1.23,21.1-2.23,30.44-6.07c36.81-15.09,60.92-50.37,63.79-89.51
		C897.74,227.97,837.75,167.06,778.41,174.86L778.41,174.86z"/>
	<path class="st3" d="M781.31,178.62c-15.43,2.17-31.59,7.43-44.49,16.52c-21.73,15.32-38.22,35.79-44.88,61.83
		c-9.75,38.11,7.88,82.35,40.43,103.9c20.57,13.62,47.69,19.2,72.02,16.25c54.7-6.63,90.5-59.64,82.93-112.73
		C880.88,219.13,828.6,171.95,781.31,178.62L781.31,178.62z"/>
	<path class="st4" d="M787.32,195.65c-15.71,1.88-29.38,3.87-43.07,12.78c-33.42,21.76-48.74,66.24-32.77,103.35
		c7.69,17.86,21.59,32.37,38.17,42.36c16.85,10.15,38.16,10.27,56.96,8.13c12.16-1.38,25.07-9.86,34.25-17.49
		c17.46-14.51,29.45-33.81,31.62-56.63C876.85,242.54,836.41,189.79,787.32,195.65L787.32,195.65z"/>
	<g>
		<path class="st5" d="M793.26,200.34c-7.22,0.15-17.8-1.09-22.24,6.21c-2.1,3.45,0.28,6.93,1.23,10.32
			c2.44,8.72,4.2,17.46,7.46,25.99c2.36,6.18,3.38,12.54,6.39,18.56c0.78,1.56,2.15,5.04,4.27,5.04c4.33,0,9.17-15.61,10.77-19.15
			c4.08-9.07,6.86-18.75,9.66-28.22c1.08-3.64,3.44-7.94,1.84-11.8C810.22,201.45,798.67,200.22,793.26,200.34L793.26,200.34z"/>
		<path class="st5" d="M756.13,213.91c-9.51-0.59-21.63,13.64-25.78,20.78c-1.54,2.66-5.22,7.08-3.66,10.26
			c1.81,3.7,7.5,6.34,10.87,8.41c10.57,6.47,28.77,17.24,41.55,16.93c6.01-0.15,1.91-10.42,0.65-13.32
			c-4.66-10.65-10.13-21.26-14.51-31.93C763.49,220.72,762.02,214.28,756.13,213.91z"/>
		<path class="st5" d="M826.15,216.12c-3.72,2-5.42,7.67-7.4,11.15c-5.35,9.36-10.97,18.45-15.47,28.22
			c-1.59,3.45-5.54,9.21-3.79,13.25c1.55,3.59,7.54,1.13,10.11,0.06c8.52-3.56,15.71-9.09,23.76-13.47
			c6.22-3.39,14.96-7.67,17.71-14.7C855.09,230.34,836.84,210.39,826.15,216.12L826.15,216.12z"/>
		<path class="st5" d="M856.37,257.18c-2.49-0.06-4.95,2.06-7.43,2.51c-11.36,2.09-22.73,7.26-33.41,11.84
			c-2.79,1.19-10.81,3.74-10.68,7.69c0.13,3.96,8.59,5.91,11.42,7.15c12.26,5.36,25.79,12.34,39.41,12.13
			c11.38-0.17,11.79-25.73,9.16-33.36C863.81,262.12,859.85,257.26,856.37,257.18z"/>
		<path class="st5" d="M721.99,258.87c-6.95,2.02-7.97,11.44-8.08,17.4c-0.23,13.14,0.47,27.24,17.72,22.62
			c10.9-2.92,22.86-7.23,32.67-12.75c2.79-1.57,8.86-3.42,9.67-7c1.12-4.95-8.06-6.73-11.16-8.27c-7.05-3.5-14.26-5.21-21.53-7.96
			C735.68,260.79,728.22,257.06,721.99,258.87L721.99,258.87z"/>
		<path class="st5" d="M776.18,286.55c-4.19,0.53-8.16,3.77-11.88,5.55c-10.91,5.2-29.13,12.26-35.13,23.55
			c-5.89,11.09,10.67,28.26,22.44,27.05c4.72-0.48,8.08-7.84,9.92-11.49c5.65-11.24,12.04-22.08,17.55-33.41
			C780.79,294.28,783.09,285.68,776.18,286.55L776.18,286.55z"/>
		<path class="st5" d="M800.51,288.91c-4,3.34,4.26,19.3,6.04,23c3.81,7.9,7.15,15.9,11.01,23.76c1.56,3.17,2.74,7.57,6.92,8.03
			c5.39,0.59,10.81-5.14,14.61-8.3c4.68-3.89,17.35-16.57,14.51-23.41c-3.13-7.53-18.63-12.12-25.44-15.42
			c-6.62-3.21-12.85-5.97-20.05-7.43C806,288.72,802.43,287.31,800.51,288.91L800.51,288.91z"/>
		<path class="st5" d="M788.11,294.19c-6.22,2.67-8.97,17.93-10.98,23.66c-2.81,8.06-11.94,22.28-9.42,31.12
			c1.08,3.78,5.88,4.89,9.22,5.73c8.72,2.17,21.91,3.68,30.37-0.34c5.33-2.54,4.23-8.22,3-12.74c-3.2-11.71-7.47-24.55-12.44-35.64
			C796.29,302.51,793.99,291.67,788.11,294.19L788.11,294.19z"/>
	</g>
	<g>
		<path class="st6" d="M778.41,174.86c-38.71,5.08-68.84,31.98-84.67,66.51c-2.31,5.05-5.6,10.16-6.9,15.59
			c-4.58,19.23-2.31,37.91,3.82,56.43c3.1,9.36,6.42,18.78,12.45,26.73c13.86,18.27,31.02,29.69,52.28,37.29
			c13.92,4.98,29.06,6.64,43.81,4.82c9.98-1.23,21.1-2.23,30.44-6.07c36.81-15.09,60.92-50.37,63.79-89.51
			C897.74,227.97,837.75,167.06,778.41,174.86L778.41,174.86z"/>
		<path class="st6" d="M781.31,178.62c-15.43,2.17-31.59,7.43-44.49,16.52c-21.73,15.32-38.22,35.79-44.88,61.83
			c-9.75,38.11,7.88,82.35,40.43,103.9c20.57,13.62,47.69,19.2,72.02,16.25c54.7-6.63,90.5-59.64,82.93-112.73
			C880.88,219.13,828.6,171.95,781.31,178.62L781.31,178.62z"/>
	</g>
	<path class="st7" d="M787.32,194.91c-15.71,1.88-29.38,3.87-43.07,12.78c-33.42,21.76-48.74,66.24-32.77,103.35
		c7.69,17.86,21.59,32.37,38.17,42.36c16.85,10.15,38.16,10.27,56.96,8.13c12.16-1.38,25.07-9.86,34.25-17.49
		c17.46-14.51,29.45-33.81,31.62-56.63C876.85,241.8,836.41,189.05,787.32,194.91L787.32,194.91z"/>
	<g>
		<path class="st6" d="M793.26,200.34c-7.22,0.15-17.8-1.09-22.24,6.21c-2.1,3.45,0.28,6.93,1.23,10.32
			c2.44,8.72,4.2,17.46,7.46,25.99c2.36,6.18,3.38,12.54,6.39,18.56c0.78,1.56,2.15,5.04,4.27,5.04c4.33,0,9.17-15.61,10.77-19.15
			c4.08-9.07,6.86-18.75,9.66-28.22c1.08-3.64,3.44-7.94,1.84-11.8C810.22,201.45,798.67,200.22,793.26,200.34L793.26,200.34z"/>
		<path class="st6" d="M756.13,213.91c-9.51-0.59-21.63,13.64-25.78,20.78c-1.54,2.66-5.22,7.08-3.66,10.26
			c1.81,3.7,7.5,6.34,10.87,8.41c10.57,6.47,28.77,17.24,41.55,16.93c6.01-0.15,1.91-10.42,0.65-13.32
			c-4.66-10.65-10.13-21.26-14.51-31.93C763.49,220.72,762.02,214.28,756.13,213.91z"/>
		<path class="st6" d="M826.15,216.12c-3.72,2-5.42,7.67-7.4,11.15c-5.35,9.36-10.97,18.45-15.47,28.22
			c-1.59,3.45-5.54,9.21-3.79,13.25c1.55,3.59,7.54,1.13,10.11,0.06c8.52-3.56,15.71-9.09,23.76-13.47
			c6.22-3.39,14.96-7.67,17.71-14.7C855.09,230.34,836.84,210.39,826.15,216.12L826.15,216.12z"/>
		<path class="st6" d="M856.37,257.18c-2.49-0.06-4.95,2.06-7.43,2.51c-11.36,2.09-22.73,7.26-33.41,11.84
			c-2.79,1.19-10.81,3.74-10.68,7.69c0.13,3.96,8.59,5.91,11.42,7.15c12.26,5.36,25.79,12.34,39.41,12.13
			c11.38-0.17,11.79-25.73,9.16-33.36C863.81,262.12,859.85,257.26,856.37,257.18z"/>
		<path class="st6" d="M722.73,258.87c-6.95,2.02-7.97,11.44-8.08,17.4c-0.23,13.14,0.47,27.24,17.72,22.62
			c10.9-2.92,22.86-7.23,32.67-12.75c2.79-1.57,8.86-3.42,9.67-7c1.12-4.95-8.06-6.73-11.16-8.27c-7.05-3.5-14.26-5.21-21.53-7.96
			C736.42,260.79,728.96,257.06,722.73,258.87L722.73,258.87z"/>
		<path class="st6" d="M776.18,286.55c-4.19,0.53-8.16,3.77-11.88,5.55c-10.91,5.2-29.13,12.26-35.13,23.55
			c-5.89,11.09,10.67,28.26,22.44,27.05c4.72-0.48,8.08-7.84,9.92-11.49c5.65-11.24,12.04-22.08,17.55-33.41
			C780.79,294.28,783.09,285.68,776.18,286.55L776.18,286.55z"/>
		<path class="st6" d="M800.51,288.91c-4,3.34,4.26,19.3,6.04,23c3.81,7.9,7.15,15.9,11.01,23.76c1.56,3.17,2.74,7.57,6.92,8.03
			c5.39,0.59,10.81-5.14,14.61-8.3c4.68-3.89,17.35-16.57,14.51-23.41c-3.13-7.53-18.63-12.12-25.44-15.42
			c-6.62-3.21-12.85-5.97-20.05-7.43C806,288.72,802.43,287.31,800.51,288.91L800.51,288.91z"/>
		<path class="st6" d="M788.11,294.19c-6.22,2.67-8.97,17.93-10.98,23.66c-2.81,8.06-11.94,22.28-9.42,31.12
			c1.08,3.78,5.88,4.89,9.22,5.73c8.72,2.17,21.91,3.68,30.37-0.34c5.33-2.54,4.23-8.22,3-12.74c-3.2-11.71-7.47-24.55-12.44-35.64
			C796.29,302.51,793.99,291.67,788.11,294.19L788.11,294.19z"/>
	</g>
</g>
<g>
	<g>
		<polygon class="st8" points="95.3,213.75 95.3,32.74 134.57,32.74 134.57,179.88 191.92,179.88 187.79,213.75 		"/>
		<path class="st7" d="M132.07,35.24v147.15h57.03l-3.52,28.87H97.8V35.24H132.07 M137.07,30.24h-5H97.8h-5v5v176.01v5h5h87.77H190
			l0.54-4.39l3.52-28.87l0.68-5.61h-5.65h-52.03V35.24V30.24L137.07,30.24z"/>
	</g>
	<g>
		<path class="st8" d="M246.59,216.8c-12.27,0-22.4-3.23-30.11-9.61c-7.61-6.3-13.24-14.9-16.74-25.55
			c-3.43-10.44-5.17-22.27-5.17-35.16c0-13.69,2.03-26.03,6.03-36.67c4.05-10.79,10-19.36,17.68-25.48
			c7.77-6.2,17.22-9.35,28.08-9.35c11.12,0,20.38,2.61,27.51,7.75c7.1,5.12,12.37,12.09,15.66,20.73c3.22,8.46,4.86,18.2,4.86,28.94
			c0,7.22-0.24,14.93-0.71,22.91l-0.14,2.35H233c0.23,4.46,0.73,8.91,1.5,13.26c0.87,4.94,2.39,8.98,4.52,12.03
			c1.87,2.68,4.5,3.98,8.04,3.98c4.35,0,7.1-1.55,8.65-4.89c1.83-3.97,3.07-8.45,3.66-13.33l0.33-2.7l34.15,7.16l-0.43,2.39
			c-2.29,12.72-7.65,22.87-15.95,30.18C269.13,213.08,258.74,216.8,246.59,216.8z M259.11,131.77v-0.79c0-4.21-0.38-8.52-1.14-12.83
			c-0.72-4.08-2.04-7.54-3.93-10.27c-1.65-2.39-3.87-3.5-6.98-3.5c-3.25,0-5.74,1.24-7.6,3.79c-2.12,2.9-3.67,6.72-4.61,11.34
			c-0.82,4.02-1.41,8.13-1.76,12.26H259.11z"/>
		<path class="st7" d="M246.36,77.48c10.64,0,19.32,2.43,26.05,7.28c6.73,4.85,11.65,11.38,14.79,19.6
			c3.13,8.21,4.69,17.56,4.69,28.04c0,7.2-0.23,14.79-0.7,22.76H230.4c0.15,5.48,0.7,10.88,1.64,16.19
			c0.94,5.32,2.58,9.66,4.93,13.02c2.35,3.37,5.71,5.05,10.09,5.05c5.32,0,8.96-2.11,10.91-6.34c1.95-4.23,3.24-8.92,3.87-14.08
			l29.1,6.1c-2.19,12.2-7.24,21.79-15.14,28.75c-7.9,6.96-17.64,10.44-29.22,10.44c-11.73,0-21.24-3.02-28.51-9.04
			c-7.28-6.02-12.6-14.16-15.96-24.41c-3.37-10.25-5.05-21.71-5.05-34.38c0-13.45,1.95-25.38,5.87-35.79
			c3.91-10.4,9.54-18.54,16.9-24.41C227.19,80.41,236.03,77.48,246.36,77.48 M230.4,134.27h31.21v-3.29c0-4.38-0.39-8.8-1.17-13.26
			c-0.78-4.46-2.23-8.21-4.34-11.26c-2.11-3.05-5.13-4.58-9.04-4.58c-4.07,0-7.27,1.61-9.62,4.81c-2.35,3.21-4.03,7.32-5.05,12.32
			C231.38,124.03,230.71,129.11,230.4,134.27 M246.36,72.48c-11.44,0-21.41,3.33-29.64,9.89c-8.03,6.41-14.25,15.34-18.46,26.56
			c-4.11,10.92-6.19,23.55-6.19,37.55c0,13.15,1.78,25.25,5.3,35.94c3.64,11.11,9.54,20.09,17.52,26.7
			c8.16,6.76,18.83,10.18,31.7,10.18c12.78,0,23.72-3.93,32.52-11.69c8.73-7.69,14.36-18.33,16.75-31.61l0.86-4.78l-4.75-1
			l-29.1-6.1l-5.33-1.12l-0.66,5.41c-0.56,4.62-1.72,8.86-3.45,12.59c-0.79,1.7-2.16,3.44-6.38,3.44c-2.74,0-4.59-0.9-5.99-2.91
			c-1.92-2.75-3.3-6.46-4.11-11.03c-0.6-3.4-1.03-6.85-1.3-10.32h55.52h4.71l0.28-4.71c0.47-8.03,0.71-15.79,0.71-23.06
			c0-11.04-1.69-21.08-5.02-29.82c-3.47-9.11-9.03-16.46-16.53-21.87C267.76,75.25,258.01,72.48,246.36,72.48L246.36,72.48z
			 M235.85,129.27c0.35-3.12,0.83-6.22,1.45-9.26c0.87-4.27,2.27-7.76,4.18-10.37c1.4-1.91,3.12-2.76,5.59-2.76
			c2.28,0,3.75,0.72,4.92,2.42c1.69,2.44,2.87,5.56,3.53,9.28c0.63,3.58,0.99,7.16,1.08,10.68H235.85L235.85,129.27z"/>
	</g>
	<g>
		<path class="st8" d="M95.3,414.91V233.9h45.68c18.77,0,33.72,4.03,44.44,11.99c10.95,8.13,16.5,20.41,16.5,36.51
			c0,18.79-6.4,32.25-19.04,40.1c7,3.42,12.43,8.13,16.19,14.06c4.54,7.18,6.84,16.67,6.84,28.21c0,15.91-5.61,28.41-16.67,37.16
			c-10.88,8.61-26.96,12.98-47.78,12.98H95.3z M141.45,382.69c17.35,0,25.43-7.11,25.43-22.38c0-7.33-1.95-12.68-5.8-15.92
			c-3.98-3.35-10.58-5.04-19.63-5.04h-6.65v43.34H141.45z M143.57,308.06c6.37,0,11.26-1.93,14.95-5.89
			c3.68-3.96,5.55-9.43,5.55-16.25c0-13.5-7.33-19.79-23.08-19.79h-6.18v41.94H143.57z"/>
		<path class="st7" d="M140.98,236.4c18.31,0,32.62,3.84,42.95,11.5c10.33,7.67,15.49,19.17,15.49,34.5
			c0,20.03-7.43,33.48-22.29,40.36c8.92,3.29,15.53,8.33,19.83,15.14c4.3,6.81,6.45,15.76,6.45,26.87c0,15.18-5.25,26.91-15.73,35.2
			c-10.48,8.29-25.89,12.44-46.23,12.44H97.8V236.4H140.98 M132.3,310.56h11.26c7.04,0,12.63-2.23,16.78-6.69
			c4.14-4.46,6.22-10.44,6.22-17.95c0-14.86-8.53-22.29-25.58-22.29h-8.68V310.56 M132.3,385.19h9.15
			c18.62,0,27.93-8.29,27.93-24.88c0-8.13-2.23-14.08-6.69-17.84c-4.46-3.76-11.54-5.63-21.24-5.63h-9.15V385.19 M140.98,231.4H97.8
			h-5v5v176.01v5h5h43.65c21.4,0,38-4.55,49.33-13.52c11.69-9.25,17.62-22.41,17.62-39.12c0-12.01-2.43-21.95-7.23-29.54
			c-3.32-5.25-7.85-9.59-13.52-12.98c11.13-8.52,16.76-21.88,16.76-39.85c0-16.93-5.89-29.89-17.51-38.51
			C175.75,235.6,160.3,231.4,140.98,231.4L140.98,231.4z M137.3,268.62h3.68c18.24,0,20.58,9.24,20.58,17.29
			c0,6.26-1.6,11.01-4.88,14.55c-3.19,3.43-7.48,5.09-13.12,5.09h-6.26V268.62L137.3,268.62z M137.3,341.84h4.15
			c8.44,0,14.51,1.5,18.02,4.46c3.3,2.78,4.91,7.36,4.91,14.01c0,13.75-7.07,19.88-22.93,19.88h-4.15V341.84L137.3,341.84z"/>
	</g>
	<g>
		<path class="st8" d="M249.17,417.73c-10.12,0-18.34-3.65-24.44-10.86c-6-7.08-9.04-16.9-9.04-29.19c0-10.85,2.75-19.86,8.16-26.77
			c5.36-6.85,12.73-11.94,21.92-15.14c8.32-2.9,17.77-4.47,28.13-4.69v-9.49c0-4.43-0.82-8.27-2.43-11.42
			c-0.86-1.68-2.6-3.92-7.75-3.92c-3.18,0-5.4,1.28-6.99,4.03c-1.86,3.22-3.1,7.13-3.67,11.62l-0.35,2.7l-34.08-7.42l0.38-2.34
			c2.13-13.1,7.45-23.06,15.83-29.61c8.31-6.5,18.35-9.8,29.82-9.8c16.02,0,28.02,4.47,35.68,13.3
			c7.57,8.73,11.41,20.96,11.41,36.37v52.57c0,6.13,0.35,12.11,1.04,17.77c0.69,5.62,1.88,11.07,3.54,16.19l1.06,3.27h-37.07
			l-0.62-1.59c-1.26-3.25-2.21-6.54-2.83-9.87c-2.07,2.98-4.57,5.64-7.48,7.97C264.18,415.61,257.38,417.73,249.17,417.73z
			 M273.89,353.73c-6.25,0.38-11.18,2.22-14.69,5.48c-3.96,3.69-5.89,8.19-5.89,13.78c0,4.3,0.91,7.76,2.71,10.29
			c1.63,2.29,4.07,3.41,7.47,3.41c3.19,0,5.65-1.03,7.51-3.14c1.95-2.21,2.89-5.04,2.89-8.67V353.73z"/>
		<path class="st7" d="M264.66,277.94c15.33,0,26.6,4.15,33.79,12.44c7.19,8.29,10.79,19.87,10.79,34.73v52.57
			c0,6.26,0.35,12.28,1.06,18.07c0.71,5.79,1.92,11.35,3.64,16.66h-31.92c-2.19-5.63-3.37-11.34-3.52-17.13
			c-2.35,5.63-5.91,10.37-10.68,14.2c-4.77,3.83-10.99,5.75-18.66,5.75c-9.39,0-16.9-3.32-22.53-9.97
			c-5.63-6.65-8.45-15.84-8.45-27.58c0-10.33,2.54-18.73,7.63-25.23c5.08-6.49,12.01-11.27,20.77-14.32
			c8.76-3.05,18.69-4.58,29.81-4.58v-11.97c0-4.85-0.9-9.04-2.7-12.56c-1.8-3.52-5.13-5.28-9.97-5.28c-4.07,0-7.12,1.76-9.15,5.28
			c-2.03,3.52-3.37,7.71-3.99,12.56l-29.1-6.34c2.03-12.52,7-21.86,14.9-28.05C244.28,281.03,253.71,277.94,264.66,277.94
			 M263.49,389.18c3.91,0,7.04-1.33,9.39-3.99c2.35-2.66,3.52-6.1,3.52-10.33v-23.7c-8.14,0-14.43,2.08-18.89,6.22
			c-4.46,4.15-6.69,9.35-6.69,15.61c0,4.85,1.06,8.76,3.17,11.73C256.09,387.69,259.26,389.18,263.49,389.18 M264.66,272.94
			c-12.05,0-22.6,3.48-31.36,10.33c-8.89,6.96-14.53,17.45-16.76,31.18l-0.76,4.68l4.63,1.01l29.1,6.34l5.33,1.16l0.7-5.41
			c0.54-4.17,1.67-7.76,3.36-10.69c1.14-1.98,2.54-2.78,4.82-2.78c3.71,0,4.88,1.29,5.52,2.56c1.43,2.79,2.15,6.25,2.15,10.28v7.07
			c-9.67,0.41-18.54,2-26.45,4.75c-9.64,3.36-17.4,8.72-23.06,15.96c-5.77,7.36-8.69,16.89-8.69,28.31c0,12.9,3.24,23.26,9.63,30.81
			c6.6,7.79,15.46,11.74,26.34,11.74c8.8,0,16.13-2.3,21.79-6.85c1.68-1.35,3.23-2.8,4.66-4.36c0.5,1.75,1.08,3.49,1.75,5.21
			l1.24,3.19h3.42h31.92h6.88l-2.12-6.54c-1.61-4.97-2.77-10.26-3.43-15.73c-0.68-5.56-1.02-11.43-1.02-17.46v-52.57
			c0-16.03-4.04-28.82-12.02-38.01C294.07,277.7,281.43,272.94,264.66,272.94L264.66,272.94z M263.49,384.18
			c-3.33,0-4.65-1.26-5.43-2.35c-1.49-2.1-2.24-5.07-2.24-8.84c0-4.85,1.67-8.76,5.09-11.95c2.57-2.39,6.09-3.91,10.49-4.54v18.37
			c0,2.99-0.74,5.29-2.27,7.02C267.74,383.45,265.95,384.18,263.49,384.18L263.49,384.18z"/>
	</g>
	<g>
		<path class="st8" d="M329.75,414.91V281.82l36.45-4.35v19.4c1.91-3.97,4.25-7.55,7-10.71c6.18-7.11,13.33-10.72,21.25-10.72
			c6.76,0,11.93,1.75,15.38,5.19l0.97,0.97l-8.15,36.95l-3.08-2.2c-2.88-2.06-6.32-3.06-10.51-3.06c-5.9,0-10.78,3.02-14.94,9.22
			c-4.31,6.43-6.5,15.28-6.5,26.3v66.1H329.75z"/>
		<path class="st7" d="M394.44,277.94c6.1,0,10.64,1.49,13.61,4.46l-7.04,31.92c-3.29-2.35-7.27-3.52-11.97-3.52
			c-6.73,0-12.4,3.44-17.01,10.33c-4.62,6.89-6.92,16.12-6.92,27.69v63.6h-32.86V284.04l31.45-3.76v32.62
			c1.88-10.17,5.67-18.54,11.38-25.11C380.79,281.22,387.24,277.94,394.44,277.94 M394.44,272.94c-8.68,0-16.46,3.9-23.14,11.58
			c-0.91,1.05-1.78,2.14-2.61,3.28v-7.51v-5.63l-5.59,0.67l-31.45,3.76l-4.41,0.53v4.44v128.37v5h5h32.86h5v-5v-63.6
			c0-10.51,2.04-18.89,6.08-24.91c3.66-5.46,7.86-8.11,12.86-8.11c3.66,0,6.62,0.85,9.06,2.59l6.16,4.4l1.63-7.39l7.04-31.92
			l0.59-2.68l-1.94-1.94C407.65,274.93,401.88,272.94,394.44,272.94L394.44,272.94z"/>
	</g>
	<g>
		<path class="st8" d="M418.62,292.73l2.37-0.93c3.09-1.21,5.4-3.2,7.08-6.09c1.48-2.55,2.34-6.37,2.54-11.38h-15.67V233.9h36.92
			v37.47c0,10.29-2.14,18.91-6.37,25.62c-4.26,6.77-9.83,11.56-16.56,14.25l-2.3,0.92L418.62,292.73z"/>
		<path class="st7" d="M449.36,236.4v34.97c0,9.86-1.99,17.95-5.98,24.29c-3.99,6.34-9.12,10.76-15.37,13.26l-6.1-14.78
			c3.6-1.41,6.37-3.79,8.33-7.16c1.95-3.36,2.93-8.41,2.93-15.14h-15.72V236.4H449.36 M454.36,231.4h-5h-31.92h-5v5v35.44v5h5h10.49
			c-0.4,4.01-1.27,6.32-2.03,7.62c-1.38,2.38-3.29,4.02-5.83,5.02l-4.74,1.86l1.94,4.71l6.1,14.78l1.89,4.57l4.59-1.83
			c7.23-2.89,13.2-8.02,17.75-15.24c4.48-7.11,6.75-16.18,6.75-26.95V236.4V231.4L454.36,231.4z"/>
	</g>
	<g>
		<path class="st8" d="M487.61,417.73c-10.12,0-18.34-3.65-24.44-10.86c-6-7.08-9.04-16.9-9.04-29.19c0-10.85,2.75-19.86,8.16-26.77
			c5.36-6.85,12.73-11.94,21.92-15.14c8.32-2.9,17.77-4.47,28.13-4.69v-9.49c0-4.42-0.82-8.27-2.43-11.42
			c-0.86-1.68-2.6-3.92-7.75-3.92c-3.18,0-5.4,1.28-6.99,4.03c-1.86,3.22-3.1,7.13-3.67,11.63l-0.35,2.7l-34.08-7.42l0.38-2.34
			c2.13-13.1,7.45-23.06,15.83-29.61c8.31-6.5,18.35-9.8,29.82-9.8c16.02,0,28.02,4.47,35.68,13.3
			c7.57,8.73,11.41,20.96,11.41,36.37v52.57c0,6.13,0.35,12.11,1.04,17.77c0.68,5.62,1.87,11.07,3.54,16.19l1.06,3.27h-37.06
			l-0.62-1.59c-1.26-3.25-2.21-6.54-2.83-9.87c-2.08,2.98-4.57,5.64-7.48,7.98C502.62,415.61,495.82,417.73,487.61,417.73z
			 M512.33,353.73c-6.25,0.38-11.18,2.22-14.69,5.48c-3.96,3.69-5.89,8.19-5.89,13.78c0,4.3,0.91,7.76,2.71,10.29
			c1.63,2.29,4.07,3.41,7.47,3.41c3.19,0,5.65-1.03,7.51-3.14c1.95-2.21,2.9-5.04,2.9-8.67V353.73z"/>
		<path class="st7" d="M503.1,277.94c15.33,0,26.6,4.15,33.79,12.44c7.19,8.29,10.79,19.87,10.79,34.73v52.57
			c0,6.26,0.35,12.28,1.06,18.07c0.71,5.79,1.92,11.35,3.64,16.66h-31.92c-2.19-5.63-3.37-11.34-3.52-17.13
			c-2.35,5.63-5.91,10.37-10.68,14.2c-4.77,3.83-10.99,5.75-18.66,5.75c-9.39,0-16.9-3.32-22.53-9.97
			c-5.63-6.65-8.45-15.84-8.45-27.58c0-10.33,2.54-18.73,7.63-25.23c5.08-6.49,12.01-11.27,20.77-14.32
			c8.76-3.05,18.69-4.58,29.81-4.58v-11.97c0-4.85-0.9-9.04-2.7-12.56c-1.8-3.52-5.13-5.28-9.97-5.28c-4.07,0-7.12,1.76-9.15,5.28
			c-2.03,3.52-3.37,7.71-3.99,12.56l-29.1-6.34c2.03-12.52,7-21.86,14.9-28.05C482.72,281.03,492.14,277.94,503.1,277.94
			 M501.92,389.18c3.91,0,7.04-1.33,9.39-3.99c2.35-2.66,3.52-6.1,3.52-10.33v-23.7c-8.14,0-14.43,2.08-18.89,6.22
			c-4.46,4.15-6.69,9.35-6.69,15.61c0,4.85,1.06,8.76,3.17,11.73C494.53,387.69,497.7,389.18,501.92,389.18 M503.1,272.94
			c-12.05,0-22.6,3.48-31.36,10.33c-8.89,6.96-14.53,17.45-16.76,31.18l-0.76,4.68l4.63,1.01l29.1,6.34l5.33,1.16l0.7-5.41
			c0.54-4.17,1.67-7.76,3.36-10.69c1.14-1.98,2.54-2.78,4.82-2.78c3.71,0,4.88,1.29,5.52,2.56c1.43,2.79,2.15,6.25,2.15,10.28v7.07
			c-9.67,0.41-18.54,2-26.45,4.75c-9.64,3.36-17.4,8.72-23.06,15.96c-5.77,7.36-8.69,16.89-8.69,28.31c0,12.9,3.24,23.26,9.63,30.81
			c6.6,7.79,15.46,11.74,26.34,11.74c8.8,0,16.13-2.3,21.79-6.85c1.68-1.35,3.23-2.8,4.66-4.36c0.5,1.75,1.08,3.49,1.75,5.21
			l1.24,3.19h3.42h31.92h6.88l-2.12-6.54c-1.61-4.97-2.77-10.26-3.43-15.73c-0.68-5.56-1.02-11.43-1.02-17.46v-52.57
			c0-16.03-4.04-28.82-12.02-38.01C532.51,277.7,519.87,272.94,503.1,272.94L503.1,272.94z M501.92,384.18
			c-3.33,0-4.65-1.26-5.43-2.35c-1.49-2.1-2.24-5.07-2.24-8.84c0-4.85,1.67-8.76,5.09-11.95c2.57-2.39,6.09-3.91,10.49-4.54v18.37
			c0,2.99-0.74,5.29-2.27,7.02C506.18,383.45,504.39,384.18,501.92,384.18L501.92,384.18z"/>
	</g>
	<g>
		<path class="st8" d="M568.18,280.9l36.21-4.63v10.94c1.98-2.44,4.27-4.58,6.86-6.39c5.1-3.57,11.43-5.38,18.8-5.38
			c14.41,0,25.15,6.74,31.92,20.02c6.49,12.73,9.78,30.05,9.78,51.48c0,12.99-1.45,24.9-4.31,35.39
			c-2.92,10.7-7.59,19.36-13.89,25.74c-6.48,6.57-14.94,9.9-25.13,9.9c-6.57,0-12.16-1.48-16.62-4.4c-2.13-1.39-4.05-2.99-5.75-4.79
			v42.69l-37.86,4.87V280.9z M618.56,305.78c-4.56,0-7.55,2.38-9.38,7.5c-2.08,5.8-3.14,13.73-3.14,23.56v19.95
			c0,9.53,1.06,17.34,3.14,23.22c1.84,5.19,4.82,7.61,9.38,7.61c5.1,0,8.66-3.28,10.89-10.02c2.49-7.53,3.75-17.77,3.75-30.43
			c0-12.82-1.26-23.26-3.75-31.04C627.21,309.17,623.65,305.78,618.56,305.78z"/>
		<path class="st7" d="M630.06,277.94c13.45,0,23.35,6.22,29.69,18.66s9.5,29.22,9.5,50.34c0,12.83-1.41,24.41-4.22,34.73
			c-2.82,10.33-7.24,18.54-13.26,24.64c-6.02,6.1-13.81,9.15-23.35,9.15c-6.1,0-11.19-1.33-15.26-3.99
			c-4.07-2.66-7.27-6.1-9.62-10.33v48.11l-32.86,4.22V283.1l31.21-3.99v16.9c2.5-5.47,6.1-9.86,10.79-13.14
			C617.39,279.58,623.17,277.94,630.06,277.94 M618.56,390.11c6.26,0,10.68-3.91,13.26-11.73c2.58-7.82,3.87-18.23,3.87-31.21
			c0-13.14-1.29-23.74-3.87-31.8c-2.58-8.06-7-12.09-13.26-12.09c-5.63,0-9.54,3.05-11.73,9.15c-2.19,6.1-3.29,14.24-3.29,24.41
			v19.95c0,9.86,1.09,17.88,3.29,24.05C609.02,387.03,612.93,390.11,618.56,390.11 M630.06,272.94c-7.9,0-14.71,1.96-20.23,5.83
			c-1.02,0.71-2,1.47-2.93,2.28v-1.94v-5.68l-5.63,0.72l-31.21,3.99l-4.37,0.56v4.4v170.38v5.68l5.64-0.72l32.86-4.22l4.36-0.56
			v-4.4v-34.92c0.61,0.46,1.24,0.9,1.89,1.32c4.87,3.19,10.93,4.8,17.99,4.8c10.88,0,19.94-3.58,26.91-10.64
			c6.61-6.7,11.49-15.73,14.53-26.84c2.92-10.71,4.4-22.84,4.4-36.05c0-21.82-3.38-39.52-10.05-52.61
			C656.97,280.13,645.49,272.94,630.06,272.94L630.06,272.94z M618.56,385.11c-2.43,0-5.17-0.71-7.02-5.94
			c-1.99-5.61-3-13.14-3-22.39v-19.95c0-9.55,1.01-17.19,2.99-22.72c1.85-5.15,4.59-5.84,7.03-5.84c1.72,0,5.74,0,8.5,8.61
			c2.41,7.53,3.63,17.71,3.63,30.27c0,12.39-1.22,22.37-3.62,29.65C624.64,384.17,621.25,385.11,618.56,385.11L618.56,385.11z"/>
	</g>
	<polygon class="st7" points="713.69,382.95 722.05,303.28 746.02,298.66 762.77,351.16 754.21,390.11 730.12,395.4 	"/>
	<g>
		<path class="st8" d="M685.7,280.02l38.21-4.88v9.42c1.6-1.69,3.36-3.21,5.29-4.55c5.27-3.69,11.79-5.56,19.37-5.56
			c14.82,0,25.85,6.92,32.81,20.57c6.56,12.88,9.89,30.35,9.89,51.93c0,13.08-1.46,25.07-4.35,35.65
			c-2.96,10.86-7.72,19.67-14.15,26.18c-6.68,6.76-15.37,10.19-25.84,10.19c-6.77,0-12.54-1.53-17.17-4.56
			c-1.5-0.98-2.91-2.07-4.21-3.25v41.18l-39.86,5.12V280.02z M737.07,306.78c-2.79,0-6.27,0.78-8.44,6.83
			c-2.04,5.69-3.08,13.5-3.08,23.22v19.95c0,9.42,1.04,17.12,3.08,22.88c2.18,6.15,5.65,6.94,8.44,6.94c2.94,0,7.18-0.97,9.94-9.33
			c2.45-7.43,3.7-17.56,3.7-30.12c0-12.72-1.25-23.06-3.71-30.73C744.23,307.78,740.01,306.78,737.07,306.78z"/>
		<path class="st7" d="M748.57,277.94c13.45,0,23.35,6.22,29.69,18.66s9.5,29.22,9.5,50.34c0,12.83-1.41,24.41-4.22,34.73
			c-2.82,10.33-7.24,18.54-13.26,24.64c-6.02,6.1-13.81,9.15-23.35,9.15c-6.1,0-11.19-1.33-15.26-3.99
			c-4.07-2.66-7.27-6.1-9.62-10.33v48.11l-32.86,4.22V283.1l31.21-3.99v16.9c2.5-5.47,6.1-9.86,10.79-13.14
			C735.9,279.58,741.69,277.94,748.57,277.94 M737.07,390.11c6.26,0,10.68-3.91,13.26-11.73c2.58-7.82,3.87-18.23,3.87-31.21
			c0-13.14-1.29-23.74-3.87-31.8c-2.58-8.06-7-12.09-13.26-12.09c-5.63,0-9.54,3.05-11.73,9.15c-2.19,6.1-3.29,14.24-3.29,24.41
			v19.95c0,9.86,1.09,17.88,3.29,24.05C727.53,387.03,731.44,390.11,737.07,390.11 M748.57,270.94c-8.21,0-15.33,2.03-21.16,6.04
			v-5.82l-7.89,1.01l-31.21,3.99l-6.11,0.78v6.16v170.38v7.96l7.89-1.01l32.86-4.22l6.11-0.79v-6.16v-31.18
			c4.98,2.91,10.99,4.38,17.88,4.38c11.44,0,20.97-3.78,28.33-11.23c6.85-6.95,11.91-16.27,15.03-27.72
			c2.97-10.88,4.47-23.18,4.47-36.58c0-22.14-3.45-40.15-10.27-53.52C777.01,278.71,764.58,270.94,748.57,270.94L748.57,270.94z
			 M737.07,383.11c-1.4,0-3.5,0-5.14-4.61c-1.91-5.39-2.88-12.7-2.88-21.72v-19.95c0-9.32,0.97-16.73,2.87-22.04
			c1.5-4.17,3.29-4.52,5.15-4.52c1.39,0,4.28,0,6.59,7.22c2.35,7.33,3.54,17.31,3.54,29.66c0,12.18-1.18,21.94-3.52,29.02
			C741.4,383.11,738.48,383.11,737.07,383.11L737.07,383.11z"/>
	</g>
</g>
</svg>
