<svg width="40" height="40" viewBox="0 0 40 40" fill="none" xmlns="http://www.w3.org/2000/svg">
<path d="M6.66669 6.66666H10.1051C10.8551 6.66666 11.2301 6.66666 11.5013 6.87845C11.7726 7.09025 11.8635 7.45403 12.0454 8.18159L12.5759 10.3035C12.9397 11.7586 13.1216 12.4861 13.6641 12.9097C14.2066 13.3333 14.9566 13.3333 16.4565 13.3333H16.6667" stroke="white" stroke-width="2" stroke-linecap="round"/>
<path d="M30 28.3333H12.5848C11.4981 28.3333 10.9548 28.3333 10.6585 28.018C10.5993 27.9549 10.5485 27.8844 10.5074 27.8083C10.3019 27.4276 10.4737 26.9121 10.8174 25.8811V25.8811C11.1961 24.7449 11.3855 24.1768 11.8044 23.8167C11.891 23.7423 11.9837 23.6755 12.0816 23.6169C12.5558 23.3333 13.1546 23.3333 14.3523 23.3333H23.3333" stroke="white" stroke-width="2" stroke-linecap="round" stroke-linejoin="round"/>
<path d="M27.0973 23.3333H15.0276C14.0499 23.3333 13.2155 22.6265 13.0548 21.6621L11.9578 15.0799C11.8054 14.1656 12.5105 13.3333 13.4374 13.3333H31.7153C32.4587 13.3333 32.9422 14.1156 32.6097 14.7805L28.8861 22.2277C28.5474 22.9053 27.8548 23.3333 27.0973 23.3333Z" stroke="white" stroke-width="2" stroke-linecap="round"/>
<circle cx="28.3333" cy="33.3333" r="1.66667" fill="white"/>
<circle cx="15" cy="33.3333" r="1.66667" fill="white"/>
</svg>
